# xmcd CD database file
#
# Track frame offsets:
#	150
#	21062
#	39061
#	74044
#	91955
#	124655
#	145896
#	166095
#	184170
#	199088
#	220443
#
# Disc length: 3326 seconds
#
# Revision: 0
# Processed by: cddbd v1.5.1PL2 Copyright (c) Steve Scherf et al.
# Submitted via: CDex 1.70beta2
#
DISCID=990cfc0b
DTITLE=Denise Donatelli - In the company of friends
DYEAR=2006
DGENRE=Jazz
TTITLE0=01-On Green Dolphin Street
TTITLE1=02-The Thrill is Gone
TTITLE2=03-'Round midnight
TTITLE3=04-You don't know what love is
TTITLE4=05-A sleepin' bee
TTITLE5=06-Send in the clowns
TTITLE6=07-This is new
TTITLE7=08-If you could see me now
TTITLE8=09-Dream Dancing
TTITLE9=10-A roaring' Borin' Alice
TTITLE10=11-When Summer turns to snow
EXTD=YEAR: 2006
EXTT0=
EXTT1=
EXTT2=
EXTT3=
EXTT4=
EXTT5=
EXTT6=
EXTT7=
EXTT8=
EXTT9=
EXTT10=
PLAYORDER=
